<svg id="Capa_1" enable-background="new 0 0 512 512" height="512" viewBox="0 0 512 512" width="512" xmlns="http://www.w3.org/2000/svg"><g><g><g><path d="m455.191 484.986-367.08-37.866c-5.701-.588-9.846-5.687-9.258-11.388l37.866-367.079c.588-5.701 5.687-9.846 11.388-9.258l367.079 37.866c5.701.588 9.846 5.687 9.258 11.388l-37.866 367.079c-.588 5.701-5.686 9.846-11.387 9.258z" fill="#fb6672"/><g fill="#fb4a59"><path d="m447.64 92.353v343.077c0 5.729-4.649 10.378-10.378 10.378h-353.226c-3.466-1.972-5.614-5.863-5.179-10.077l37.858-367.081c.592-5.697 5.687-9.848 11.395-9.257z"/><path d="m504.448 108.644-37.867 367.084c-.588 5.698-5.69 9.846-11.388 9.258l-41.157-4.246c5.698.588 10.8-3.56 11.388-9.258l37.867-367.084c.588-5.698-3.56-10.8-9.258-11.388l41.157 4.246c5.698.588 9.846 5.69 9.258 11.388z"/></g></g><g><path d="m447.633 37.336v369.022c0 5.74-4.64 10.38-10.37 10.38h-369.033c-5.73 0-10.38-4.64-10.38-10.38v-369.022c0-5.73 4.65-10.38 10.38-10.38h369.032c5.731 0 10.371 4.65 10.371 10.38z" fill="#f8f3f1"/><g><path d="m201.341 139.826c0 25.82-21.01 46.82-46.82 46.82h-96.671v-25.94h96.671c11.51 0 20.87-9.37 20.87-20.88s-9.36-20.87-20.87-20.87h-50.29c-7.16 0-12.97-5.81-12.97-12.97 0-7.17 5.81-12.98 12.97-12.98h50.29c25.81 0 46.82 21.01 46.82 46.82z" fill="#e5e1e5"/></g><path d="m447.64 37.33v369.032c0 5.729-4.649 10.378-10.378 10.378h-41.376c5.728 0 10.378-4.649 10.378-10.378v-369.032c0-5.729-4.649-10.378-10.378-10.378h41.376c5.729.001 10.378 4.65 10.378 10.378z" fill="#e5e1e5"/></g><g><path d="m57.855 98.487h-3.536c-11.51 0-20.875 9.364-20.875 20.875 0 11.51 9.364 20.875 20.875 20.875h100.2c11.511 0 20.875-9.364 20.875-20.875s-9.364-20.875-20.875-20.875h-50.289c-7.165 0-12.972-5.808-12.972-12.972s5.808-12.972 12.972-12.972h50.289c25.816 0 46.819 21.003 46.819 46.819s-21.003 46.819-46.819 46.819h-100.2c-25.816 0-46.819-21.003-46.819-46.819s21.003-46.819 46.819-46.819h3.536z" fill="#24d1f8"/></g></g><g><path d="m495.956 89.8-40.819-4.21v-48.255c0-9.857-8.02-17.878-17.878-17.878h-85.244c-4.143 0-7.5 3.358-7.5 7.5s3.357 7.5 7.5 7.5h85.244c1.587 0 2.878 1.291 2.878 2.877v369.027c0 1.586-1.291 2.877-2.878 2.877h-369.027c-1.586 0-2.877-1.291-2.877-2.877v-97.154c0-4.142-3.358-7.5-7.5-7.5s-7.5 3.358-7.5 7.5v97.154c0 9.858 8.02 17.878 17.878 17.878h4.266l-1.106 10.723c-1.011 9.805 6.144 18.606 15.949 19.618l231.156 23.845c.262.027.521.04.778.04 3.796 0 7.054-2.873 7.451-6.731.426-4.12-2.57-7.805-6.69-8.23l-231.156-23.845c-1.579-.163-2.73-1.58-2.568-3.158l1.265-12.262h349.682c9.858 0 17.878-8.02 17.878-17.878v-305.691l39.28 4.052c1.578.163 2.73 1.58 2.567 3.158l-37.866 367.079c-.106 1.032-.702 1.657-1.048 1.938-.345.281-1.073.735-2.11.629l-99.793-10.294c-4.134-.422-7.806 2.571-8.23 6.691-.426 4.12 2.57 7.805 6.69 8.23l99.793 10.294c.625.064 1.248.096 1.868.096 4.091 0 8.026-1.392 11.244-4.007 3.705-3.013 6.016-7.288 6.505-12.038l37.866-367.079c1.012-9.806-6.142-18.607-15.948-19.619z"/><path d="m50.355 272.918c0 4.142 3.358 7.5 7.5 7.5s7.5-3.358 7.5-7.5v-99.237h89.164c29.952 0 54.319-24.367 54.319-54.319s-24.367-54.32-54.319-54.32h-50.289c-11.289 0-20.472 9.184-20.472 20.472s9.184 20.472 20.472 20.472h50.289c7.375 0 13.375 6 13.375 13.375s-6 13.374-13.375 13.374h-89.164v-34.248-25.944-35.208c0-1.586 1.291-2.877 2.877-2.877h247.494c4.143 0 7.5-3.358 7.5-7.5s-3.357-7.5-7.5-7.5h-247.494c-9.857 0-17.878 8.02-17.878 17.878v27.868c-28.105 2.038-50.354 25.541-50.354 54.158s22.249 52.119 50.355 54.158zm-9.41-153.556c0-5.995 3.965-11.082 9.41-12.775v25.549c-5.445-1.693-9.41-6.779-9.41-12.774zm-25.945 0c0-20.343 15.529-37.127 35.355-39.121v11.022c-13.776 1.934-24.41 13.798-24.41 28.099 0 15.646 12.729 28.374 28.374 28.374h100.2c15.646 0 28.375-12.729 28.375-28.374 0-15.646-12.729-28.375-28.375-28.375h-50.289c-3.018 0-5.472-2.455-5.472-5.472 0-3.018 2.455-5.472 5.472-5.472h50.289c21.681 0 39.319 17.639 39.319 39.32 0 21.68-17.638 39.319-39.319 39.319h-100.2c-21.681-.001-39.319-17.639-39.319-39.32z"/><path d="m235.864 246.869c-4.142 0-7.5 3.358-7.5 7.5s3.358 7.5 7.5 7.5h33.755c4.143 0 7.5-3.358 7.5-7.5s-3.357-7.5-7.5-7.5z"/><path d="m301.44 217.397c0-4.142-3.357-7.5-7.5-7.5h-82.398c-4.142 0-7.5 3.358-7.5 7.5s3.358 7.5 7.5 7.5h82.398c4.143 0 7.5-3.358 7.5-7.5z"/><path d="m293.94 181.829h-82.398c-4.142 0-7.5 3.358-7.5 7.5s3.358 7.5 7.5 7.5h82.398c4.143 0 7.5-3.358 7.5-7.5s-3.357-7.5-7.5-7.5z"/></g></g></svg>